<?xml version="1.0" standalone="no"?>
<!DOCTYPE svg PUBLIC "-//W3C//DTD SVG 20010904//EN"
 "http://www.w3.org/TR/2001/REC-SVG-20010904/DTD/svg10.dtd">
<svg version="1.0" xmlns="http://www.w3.org/2000/svg"
 width="1080.000000pt" height="1080.000000pt" viewBox="0 0 1080.000000 1080.000000"
 preserveAspectRatio="xMidYMid meet">
<metadata>
Created by potrace 1.14, written by Peter Selinger 2001-2017
</metadata>
<g transform="translate(0.000000,1080.000000) scale(0.100000,-0.100000)"
fill="#000000" stroke="none">
<path d="M1120 10785 c-575 -97 -1011 -535 -1105 -1110 -22 -136 -22 -8414 0
-8550 64 -391 281 -717 619 -929 145 -91 308 -151 491 -181 136 -22 8414 -22
8550 0 578 94 1016 532 1110 1110 22 136 22 8414 0 8550 -84 516 -458 938
-950 1076 -186 52 74 49 -4445 48 -3335 -1 -4210 -4 -4270 -14z m520 -4901
c120 -35 190 -121 190 -231 0 -96 -39 -159 -124 -199 l-49 -23 40 -10 c95 -26
161 -106 170 -209 11 -123 -54 -226 -173 -273 -55 -22 -75 -23 -321 -27 l-263
-4 0 496 0 496 238 0 c190 0 249 -3 292 -16z m1382 -321 c3 -328 4 -339 25
-380 15 -27 39 -52 68 -69 40 -23 54 -26 119 -22 62 3 79 8 111 32 72 55 75
68 75 444 l0 332 105 0 105 0 0 -355 c0 -301 -2 -362 -16 -402 -50 -147 -174
-230 -360 -240 -156 -9 -268 30 -353 123 -86 94 -91 121 -91 530 l0 344 104 0
105 0 3 -337z m1828 150 c1 -142 3 -183 12 -168 21 39 82 95 116 106 132 43
283 -24 346 -154 73 -149 51 -388 -47 -502 -14 -17 -49 -44 -79 -60 -45 -26
-64 -30 -128 -30 -91 0 -140 22 -187 84 l-33 43 0 -61 0 -61 -105 0 -105 0 0
495 0 495 105 0 105 0 0 -187z m860 -308 l0 -495 -105 0 -105 0 0 495 0 495
105 0 105 0 0 -495z m3580 0 l0 -496 -102 3 -103 3 -3 52 -3 52 -47 -49 c-127
-130 -344 -73 -427 113 -50 110 -47 315 6 419 90 178 335 220 440 75 l29 -40
0 181 0 182 105 0 105 0 0 -495z m-6820 232 c76 -27 150 -103 179 -182 13 -33
25 -95 28 -142 l6 -83 -255 0 -255 0 7 -37 c15 -83 58 -125 134 -131 75 -6
104 3 143 44 l33 35 90 -7 c56 -4 90 -11 90 -18 -1 -31 -42 -96 -85 -134 -103
-91 -294 -110 -429 -43 -121 59 -186 178 -186 340 0 290 232 456 500 358z
m1878 -4 c58 -27 103 -84 122 -153 5 -19 10 -155 10 -302 l0 -268 -105 0 -105
0 0 245 c0 200 -3 251 -15 275 -36 69 -149 81 -208 21 l-32 -31 -5 -253 -5
-252 -102 -3 -103 -3 0 376 0 376 98 -3 97 -3 5 -58 5 -57 20 30 c40 61 142
103 225 94 25 -3 69 -17 98 -31z m2790 31 c21 -6 22 -11 22 -98 l0 -91 -67 3
c-78 3 -120 -16 -153 -70 -18 -30 -20 -51 -20 -265 l0 -233 -105 0 -105 0 2
373 3 372 98 3 97 3 0 -68 1 -68 18 35 c43 80 132 124 209 104z m551 0 l31 -6
0 -89 0 -89 -72 0 c-85 0 -126 -20 -155 -72 -16 -29 -18 -64 -21 -266 l-3
-233 -102 3 -102 3 0 370 0 370 100 0 100 0 5 -60 5 -60 14 33 c16 39 62 76
111 90 45 13 51 13 89 6z m567 -25 c73 -27 128 -79 166 -156 28 -57 33 -79 36
-159 l4 -94 -251 0 -251 0 0 -22 c1 -41 38 -107 72 -128 69 -42 205 -18 223
40 7 22 10 22 104 15 53 -4 98 -8 99 -10 7 -7 -40 -100 -61 -124 -59 -63 -160
-101 -273 -101 -229 0 -368 143 -368 380 0 130 39 229 120 299 97 86 246 109
380 60z m-2176 -234 c4 -217 7 -253 23 -276 33 -49 100 -63 164 -33 65 32 67
41 73 314 l5 245 103 3 102 3 0 -376 0 -375 -100 0 -100 0 0 66 0 66 -33 -44
c-87 -116 -268 -128 -372 -23 -69 69 -75 101 -75 417 l0 269 103 -3 102 -3 5
-250z m3576 -309 c28 -28 34 -41 34 -78 0 -50 -18 -82 -60 -103 -87 -45 -180
22 -167 119 8 59 52 96 113 96 39 0 51 -5 80 -34z"/>
<path d="M1320 5610 l0 -120 98 0 c114 0 157 16 185 70 21 41 17 92 -10 123
-31 35 -77 47 -178 47 l-95 0 0 -120z"/>
<path d="M1320 5215 l0 -125 115 0 c133 0 175 13 199 59 32 61 12 136 -47 171
-27 17 -51 20 -149 20 l-118 0 0 -125z"/>
<path d="M4945 5486 c-66 -30 -94 -92 -94 -206 -1 -129 56 -210 146 -210 61 0
99 25 128 84 20 41 25 65 25 131 0 127 -48 201 -136 211 -22 2 -52 -2 -69 -10z"/>
<path d="M8870 5482 c-106 -53 -122 -295 -25 -381 62 -54 160 -39 204 33 32
51 45 140 32 212 -12 66 -32 98 -81 132 -40 26 -83 28 -130 4z"/>
<path d="M2263 5490 c-45 -20 -83 -69 -83 -107 0 -23 1 -23 151 -23 l152 0 -7
33 c-8 43 -35 78 -77 99 -44 23 -83 22 -136 -2z"/>
<path d="M8055 5496 c-47 -21 -95 -85 -95 -127 0 -5 66 -9 155 -9 117 0 155 3
155 13 0 6 -9 31 -20 55 -31 68 -122 100 -195 68z"/>
</g>
</svg>
